<mxfile modified="2024-01-30T10:18:41.985Z" host="app.diagrams.net" agent="Mozilla/5.0 (Windows NT 10.0; Win64; x64) AppleWebKit/537.36 (KHTML, like Gecko) Chrome/120.0.0.0 Safari/537.36" etag="VCf01jajsUvgoQapCEoF" version="23.0.2" type="github">
  <diagram id="WI9T0HZ2pTsCkuznbFz-" name="Page-1">
    <mxGraphModel dx="2440" dy="868" grid="1" gridSize="10" guides="1" tooltips="1" connect="1" arrows="1" fold="1" page="1" pageScale="1" pageWidth="1169" pageHeight="827" background="#FFFFFF" math="0" shadow="0">
      <root>
        <mxCell id="0" />
        <mxCell id="1" parent="0" />
        <mxCell id="mMs3MUim43qkEUvU6Fzg-33" value="" style="shape=image;verticalLabelPosition=bottom;labelBackgroundColor=default;verticalAlign=top;aspect=fixed;imageAspect=0;image=https://miro.medium.com/v2/resize:fit:1000/1*d4Eg17IVJ0L41e7CTWLLSg.png;" vertex="1" parent="1">
          <mxGeometry x="10" y="420" width="718.28" height="399.36" as="geometry" />
        </mxCell>
        <mxCell id="mMs3MUim43qkEUvU6Fzg-32" value="&lt;font style=&quot;font-size: 40px;&quot;&gt;YOLO v3&lt;/font&gt;" style="whiteSpace=wrap;html=1;" vertex="1" parent="1">
          <mxGeometry x="186.23934579439253" y="359.00116279069766" width="365.7943925233645" height="54.41860465116279" as="geometry" />
        </mxCell>
        <mxCell id="mMs3MUim43qkEUvU6Fzg-3" value="&lt;font style=&quot;font-size: 40px;&quot;&gt;AI Architecture&lt;/font&gt;" style="whiteSpace=wrap;html=1;" vertex="1" parent="1">
          <mxGeometry x="510" y="20" width="379.99999999999994" height="44.624445889437006" as="geometry" />
        </mxCell>
        <mxCell id="RLjyjs_sm2IHfBNOWAbh-28" style="edgeStyle=elbowEdgeStyle;rounded=0;orthogonalLoop=1;jettySize=auto;html=1;strokeColor=#808080;exitX=1;exitY=0.25;exitDx=0;exitDy=0;exitPerimeter=0;" parent="1" source="mMs3MUim43qkEUvU6Fzg-10" target="mMs3MUim43qkEUvU6Fzg-20" edge="1">
          <mxGeometry relative="1" as="geometry">
            <Array as="points">
              <mxPoint x="930.0000000000002" y="276.03275829064484" />
            </Array>
            <mxPoint x="910.5825242718447" y="313.2197965318423" as="sourcePoint" />
            <mxPoint x="822.2330097087378" y="231.40831240120778" as="targetPoint" />
          </mxGeometry>
        </mxCell>
        <mxCell id="RLjyjs_sm2IHfBNOWAbh-17" value="ML Model&lt;br&gt;Experiments" style="aspect=fixed;html=1;perimeter=none;align=left;shadow=0;dashed=0;image;fontSize=12;image=img/lib/mscae/Machine_Learning.svg;labelBackgroundColor=#ffffff;fillColor=#4D9900;labelPosition=right;verticalLabelPosition=bottom;verticalAlign=top;" parent="1" vertex="1">
          <mxGeometry x="1050" y="140" width="48.33" height="50" as="geometry" />
        </mxCell>
        <mxCell id="mMs3MUim43qkEUvU6Fzg-1" value="Mobile Web view" style="verticalLabelPosition=bottom;html=1;verticalAlign=top;align=center;strokeColor=none;fillColor=#00BEF2;shape=mxgraph.azure.mobile;pointerEvents=1;" vertex="1" parent="1">
          <mxGeometry x="280" y="86.93666883415551" width="38.349514563106794" height="47.97127933114478" as="geometry" />
        </mxCell>
        <mxCell id="mMs3MUim43qkEUvU6Fzg-7" value="" style="edgeStyle=elbowEdgeStyle;rounded=0;orthogonalLoop=1;jettySize=auto;html=1;strokeColor=#808080;entryX=0;entryY=0.25;entryDx=0;entryDy=0;entryPerimeter=0;" edge="1" parent="1" target="mMs3MUim43qkEUvU6Fzg-6">
          <mxGeometry relative="1" as="geometry">
            <mxPoint x="320" y="104" as="sourcePoint" />
            <mxPoint x="493.10679611650494" y="112.4097900293758" as="targetPoint" />
            <Array as="points">
              <mxPoint x="362" y="110" />
            </Array>
          </mxGeometry>
        </mxCell>
        <mxCell id="mMs3MUim43qkEUvU6Fzg-6" value="API Gateway" style="sketch=0;points=[[0,0,0],[0.25,0,0],[0.5,0,0],[0.75,0,0],[1,0,0],[0,1,0],[0.25,1,0],[0.5,1,0],[0.75,1,0],[1,1,0],[0,0.25,0],[0,0.5,0],[0,0.75,0],[1,0.25,0],[1,0.5,0],[1,0.75,0]];outlineConnect=0;fontColor=#232F3E;fillColor=#E7157B;strokeColor=#ffffff;dashed=0;verticalLabelPosition=bottom;verticalAlign=top;align=center;html=1;fontSize=12;fontStyle=0;aspect=fixed;shape=mxgraph.aws4.resourceIcon;resIcon=mxgraph.aws4.api_gateway;" vertex="1" parent="1">
          <mxGeometry x="405.73" y="88.8" width="61.2" height="61.2" as="geometry" />
        </mxCell>
        <mxCell id="mMs3MUim43qkEUvU6Fzg-10" value="VESSL AI&lt;br&gt;(MLOPS Cloud)" style="sketch=0;points=[[0,0,0],[0.25,0,0],[0.5,0,0],[0.75,0,0],[1,0,0],[0,1,0],[0.25,1,0],[0.5,1,0],[0.75,1,0],[1,1,0],[0,0.25,0],[0,0.5,0],[0,0.75,0],[1,0.25,0],[1,0.5,0],[1,0.75,0]];outlineConnect=0;fontColor=#232F3E;fillColor=#01A88D;strokeColor=#ffffff;dashed=0;verticalLabelPosition=bottom;verticalAlign=top;align=center;html=1;fontSize=12;fontStyle=0;aspect=fixed;shape=mxgraph.aws4.resourceIcon;resIcon=mxgraph.aws4.augmented_ai;" vertex="1" parent="1">
          <mxGeometry x="815.32" y="320" width="73.82" height="73.82" as="geometry" />
        </mxCell>
        <mxCell id="mMs3MUim43qkEUvU6Fzg-11" value="" style="strokeColor=#dddddd;shadow=1;strokeWidth=1;rounded=1;absoluteArcSize=1;arcSize=2;" vertex="1" parent="1">
          <mxGeometry x="636.4000000000001" y="86.94" width="178.06" height="69.72" as="geometry" />
        </mxCell>
        <mxCell id="mMs3MUim43qkEUvU6Fzg-12" value="&lt;font color=&quot;#000000&quot;&gt;YOLO v3&lt;/font&gt;&lt;br&gt;Model API" style="editableCssRules=.*;html=1;fontColor=#999999;shape=image;verticalLabelPosition=middle;verticalAlign=middle;labelPosition=right;align=left;spacingLeft=20;part=1;points=[];imageAspect=0;image=data:image/svg+xml,PHN2ZyB4bWxucz0iaHR0cDovL3d3dy53My5vcmcvMjAwMC9zdmciIHhtbG5zOnY9Imh0dHBzOi8vdmVjdGEuaW8vbmFubyIgd2lkdGg9IjIwIiBoZWlnaHQ9IjE2IiB2aWV3Qm94PSIwIDAgMjAgMTYiPiYjeGE7CTxzdHlsZSB0eXBlPSJ0ZXh0L2NzcyI+JiN4YTsJLnN0MHtmaWxsOiM2NjlkZjY7fSYjeGE7CS5zdDF7ZmlsbDojYWVjYmZhO30mI3hhOwkuc3Qye2ZpbGw6IzQyODVmNDt9JiN4YTsJPC9zdHlsZT4mI3hhOwk8ZyBjbGFzcz0ic3QwIj4mI3hhOwkJPHBhdGggZD0iTTEwIDE2TDAgOGg0bDYgNC45OXoiLz4mI3hhOwkJPHBhdGggZD0iTTIwIDhsLTEwIDh2LTMuMDFMMTYgOHoiLz4mI3hhOwk8L2c+JiN4YTsJPGcgY2xhc3M9InN0MSI+JiN4YTsJCTxwYXRoIGQ9Ik0xMCAzLjAxTDQgOEgwbDEwLTh6Ii8+JiN4YTsJCTxwYXRoIGQ9Ik0yMCA4TDEwIDB2My4wMUwxNiA4eiIvPiYjeGE7CTwvZz4mI3hhOwk8Y2lyY2xlIGNsYXNzPSJzdDIiIGN4PSIxMCIgY3k9IjgiIHI9IjIiLz4mI3hhOzwvc3ZnPg==;" vertex="1" parent="mMs3MUim43qkEUvU6Fzg-11">
          <mxGeometry width="40" height="50" relative="1" as="geometry">
            <mxPoint x="15" y="8" as="offset" />
          </mxGeometry>
        </mxCell>
        <mxCell id="RLjyjs_sm2IHfBNOWAbh-37" style="edgeStyle=elbowEdgeStyle;rounded=0;orthogonalLoop=1;jettySize=auto;html=1;strokeColor=#808080;exitX=1;exitY=0.25;exitDx=0;exitDy=0;exitPerimeter=0;" parent="1" source="mMs3MUim43qkEUvU6Fzg-6" target="mMs3MUim43qkEUvU6Fzg-11" edge="1">
          <mxGeometry relative="1" as="geometry">
            <mxPoint x="481.01941747572823" y="23.160898250501788" as="sourcePoint" />
            <mxPoint x="523.1810679611652" y="100.50993779219259" as="targetPoint" />
            <Array as="points">
              <mxPoint x="550" y="104" />
            </Array>
          </mxGeometry>
        </mxCell>
        <mxCell id="mMs3MUim43qkEUvU6Fzg-15" style="edgeStyle=elbowEdgeStyle;rounded=0;orthogonalLoop=1;jettySize=auto;html=1;strokeColor=#808080;exitX=1;exitY=0.5;exitDx=0;exitDy=0;exitPerimeter=0;" edge="1" parent="1" source="mMs3MUim43qkEUvU6Fzg-10" target="RLjyjs_sm2IHfBNOWAbh-17">
          <mxGeometry relative="1" as="geometry">
            <Array as="points">
              <mxPoint x="1073.6893203883496" y="328.0946118283214" />
            </Array>
            <mxPoint x="904.7572815533982" y="320.6572041800818" as="sourcePoint" />
            <mxPoint x="939.7087378640778" y="246.28312769768684" as="targetPoint" />
          </mxGeometry>
        </mxCell>
        <mxCell id="mMs3MUim43qkEUvU6Fzg-17" value="Food_IMG&lt;br&gt;DB" style="shape=cylinder3;whiteSpace=wrap;html=1;boundedLbl=1;backgroundOutline=1;size=15;" vertex="1" parent="1">
          <mxGeometry x="585" y="220" width="58.25" height="77.6" as="geometry" />
        </mxCell>
        <mxCell id="mMs3MUim43qkEUvU6Fzg-18" value="FoodList&lt;br&gt;DB" style="shape=cylinder3;whiteSpace=wrap;html=1;boundedLbl=1;backgroundOutline=1;size=15;" vertex="1" parent="1">
          <mxGeometry x="485.79271844660195" y="245.53938693286287" width="58.25242718446603" height="52.061853537676505" as="geometry" />
        </mxCell>
        <mxCell id="mMs3MUim43qkEUvU6Fzg-19" style="edgeStyle=elbowEdgeStyle;rounded=0;orthogonalLoop=1;jettySize=auto;html=1;strokeColor=#808080;" edge="1" parent="1" source="mMs3MUim43qkEUvU6Fzg-11" target="mMs3MUim43qkEUvU6Fzg-6">
          <mxGeometry relative="1" as="geometry">
            <mxPoint x="522.5490291262137" y="115.84959106668659" as="sourcePoint" />
            <mxPoint x="463.9805825242719" y="127.28460532585481" as="targetPoint" />
            <Array as="points">
              <mxPoint x="502.8155339805826" y="127.28460532585481" />
            </Array>
          </mxGeometry>
        </mxCell>
        <mxCell id="mMs3MUim43qkEUvU6Fzg-20" value="YOLO v3" style="sketch=0;outlineConnect=0;fontColor=#232F3E;gradientColor=none;fillColor=#01A88D;strokeColor=none;dashed=0;verticalLabelPosition=bottom;verticalAlign=top;align=center;html=1;fontSize=12;fontStyle=0;aspect=fixed;pointerEvents=1;shape=mxgraph.aws4.sagemaker_model;" vertex="1" parent="1">
          <mxGeometry x="814.46" y="190" width="75.54" height="75.54" as="geometry" />
        </mxCell>
        <mxCell id="mMs3MUim43qkEUvU6Fzg-24" style="edgeStyle=elbowEdgeStyle;rounded=0;orthogonalLoop=1;jettySize=auto;html=1;strokeColor=#808080;" edge="1" parent="1" source="mMs3MUim43qkEUvU6Fzg-20" target="RLjyjs_sm2IHfBNOWAbh-17">
          <mxGeometry relative="1" as="geometry">
            <Array as="points">
              <mxPoint x="870" y="165" />
            </Array>
            <mxPoint x="1005.2912621359227" y="138.0688464158021" as="sourcePoint" />
            <mxPoint x="823.2038834951458" y="155.17488400675293" as="targetPoint" />
          </mxGeometry>
        </mxCell>
        <mxCell id="mMs3MUim43qkEUvU6Fzg-25" value="" style="edgeStyle=orthogonalEdgeStyle;rounded=0;orthogonalLoop=1;jettySize=auto;html=1;entryX=0;entryY=0.75;entryDx=0;entryDy=0;entryPerimeter=0;" edge="1" parent="1" source="mMs3MUim43qkEUvU6Fzg-18" target="mMs3MUim43qkEUvU6Fzg-6">
          <mxGeometry relative="1" as="geometry">
            <mxPoint x="143.59223300970868" y="294.6262774112436" as="sourcePoint" />
            <mxPoint x="303.7864077669903" y="157.03423591881278" as="targetPoint" />
            <Array as="points">
              <mxPoint x="380" y="273" />
              <mxPoint x="380" y="135" />
            </Array>
          </mxGeometry>
        </mxCell>
        <mxCell id="mMs3MUim43qkEUvU6Fzg-21" value="" style="edgeStyle=orthogonalEdgeStyle;rounded=0;orthogonalLoop=1;jettySize=auto;html=1;entryX=0.152;entryY=0.984;entryDx=0;entryDy=0;entryPerimeter=0;exitX=0.5;exitY=0;exitDx=0;exitDy=0;exitPerimeter=0;" edge="1" parent="1" source="mMs3MUim43qkEUvU6Fzg-18" target="mMs3MUim43qkEUvU6Fzg-11">
          <mxGeometry relative="1" as="geometry">
            <mxPoint x="510.0011764705883" y="265.53938693286295" as="sourcePoint" />
            <mxPoint x="635.06" y="180" as="targetPoint" />
            <Array as="points">
              <mxPoint x="515" y="200" />
              <mxPoint x="664" y="200" />
            </Array>
          </mxGeometry>
        </mxCell>
        <mxCell id="mMs3MUim43qkEUvU6Fzg-27" style="edgeStyle=elbowEdgeStyle;rounded=0;orthogonalLoop=1;jettySize=auto;html=1;strokeColor=#808080;exitX=0;exitY=0.5;exitDx=0;exitDy=0;exitPerimeter=0;entryX=0.5;entryY=1;entryDx=0;entryDy=0;entryPerimeter=0;" edge="1" parent="1" source="mMs3MUim43qkEUvU6Fzg-10" target="mMs3MUim43qkEUvU6Fzg-17">
          <mxGeometry relative="1" as="geometry">
            <Array as="points">
              <mxPoint x="614" y="325" />
            </Array>
            <mxPoint x="687.2815533980582" y="290.9075735871238" as="sourcePoint" />
            <mxPoint x="825.1456310679614" y="290.9075735871238" as="targetPoint" />
          </mxGeometry>
        </mxCell>
        <mxCell id="mMs3MUim43qkEUvU6Fzg-16" style="edgeStyle=elbowEdgeStyle;rounded=0;orthogonalLoop=1;jettySize=auto;html=1;strokeColor=#808080;exitX=1;exitY=0.5;exitDx=0;exitDy=0;exitPerimeter=0;" edge="1" parent="1" source="mMs3MUim43qkEUvU6Fzg-17" target="mMs3MUim43qkEUvU6Fzg-20">
          <mxGeometry relative="1" as="geometry">
            <Array as="points">
              <mxPoint x="720" y="230" />
            </Array>
            <mxPoint x="630" y="240" as="sourcePoint" />
            <mxPoint x="810" y="247" as="targetPoint" />
          </mxGeometry>
        </mxCell>
        <mxCell id="mMs3MUim43qkEUvU6Fzg-28" style="edgeStyle=elbowEdgeStyle;rounded=0;orthogonalLoop=1;jettySize=auto;html=1;strokeColor=#808080;entryX=1;entryY=0.5;entryDx=0;entryDy=0;" edge="1" parent="1" source="RLjyjs_sm2IHfBNOWAbh-17" target="mMs3MUim43qkEUvU6Fzg-11">
          <mxGeometry relative="1" as="geometry">
            <Array as="points">
              <mxPoint x="1073.6893203883496" y="119.84719767761528" />
            </Array>
            <mxPoint x="1074" y="160" as="sourcePoint" />
            <mxPoint x="745.5339805825245" y="86.93666883415551" as="targetPoint" />
          </mxGeometry>
        </mxCell>
      </root>
    </mxGraphModel>
  </diagram>
</mxfile>
